<?xml version="1.0" encoding="UTF-8" standalone="no"?>
<svg
   viewBox="0 0 200 200"
   width="1024"
   height="1024"
   version="1.1"
   id="svg4"
   sodipodi:docname="icon.svg"
   inkscape:version="1.4.3 (0d15f75, 2025-12-25)"
   xmlns:inkscape="http://www.inkscape.org/namespaces/inkscape"
   xmlns:sodipodi="http://sodipodi.sourceforge.net/DTD/sodipodi-0.dtd"
   xmlns="http://www.w3.org/2000/svg"
   xmlns:svg="http://www.w3.org/2000/svg">
  <defs
     id="defs4" />
  <sodipodi:namedview
     id="namedview4"
     pagecolor="#ffffff"
     bordercolor="#000000"
     borderopacity="0.25"
     inkscape:showpageshadow="2"
     inkscape:pageopacity="0.0"
     inkscape:pagecheckerboard="0"
     inkscape:deskcolor="#d1d1d1"
     inkscape:zoom="1"
     inkscape:cx="441.5"
     inkscape:cy="352"
     inkscape:window-width="1470"
     inkscape:window-height="895"
     inkscape:window-x="0"
     inkscape:window-y="33"
     inkscape:window-maximized="0"
     inkscape:current-layer="g4" />
  <g
     transform="translate(0,4)"
     id="g4">
    <path
       d="m 100,116 v 0.2 0.2 l 0.1,0.2 v 0.2 l 0.1,0.1 0.1,0.2 0.1,0.2 0.2,0.1 0.1,0.2 0.2,0.1 0.1,0.1 0.2,0.1 0.2,0.1 0.2,0.1 0.2,0.1 h 0.3 l 0.2,0.1 h 0.2 0.3 0.3 l 0.2,-0.1 h 0.3 l 0.2,-0.1 0.3,-0.1 0.3,-0.1 0.2,-0.1 0.3,-0.2 0.3,-0.2 0.2,-0.2 0.2,-0.2 0.3,-0.2 0.2,-0.3 0.2,-0.3 0.2,-0.3 0.2,-0.3 0.1,-0.3 0.2,-0.3 0.1,-0.4 0.1,-0.4 0.1,-0.4 0.1,-0.4 V 113 l 0.1,-0.4 v -0.4 -0.5 l -0.1,-0.4 -0.1,-0.5 -0.1,-0.4 -0.1,-0.5 -0.1,-0.4 -0.2,-0.5 -0.2,-0.4 -0.2,-0.5 -0.3,-0.4 -0.3,-0.4 -0.3,-0.5 -0.3,-0.4 -0.4,-0.4 -0.4,-0.4 -0.4,-0.3 -0.5,-0.4 -0.4,-0.3 -0.5,-0.4 -0.5,-0.2 -0.6,-0.3 -0.5,-0.3 -0.6,-0.2 -0.6,-0.2 -0.6,-0.1 -0.7,-0.2 -0.6,-0.1 -0.7,-0.1 h -0.6 -0.7 -0.7 l -0.7,0.1 -0.7,0.1 -0.7,0.1 -0.7,0.2 -0.7,0.2 -0.7,0.2 -0.7,0.3 -0.7,0.3 -0.6,0.4 -0.7,0.4 -0.7,0.4 -0.6,0.5 -0.6,0.5 -0.6,0.5 -0.6,0.6 -0.6,0.6 -0.5,0.6 -0.5,0.7 -0.5,0.7 -0.4,0.7 -0.4,0.8 -0.4,0.8 -0.4,0.8 -0.3,0.8 -0.2,0.9 -0.3,0.9 -0.2,0.9 -0.1,0.9 -0.1,0.9 -0.1,1 v 0.9 1 l 0.1,1 0.1,0.9 0.2,1 0.2,1 0.3,0.9 0.3,1 0.4,1 0.4,0.9 0.5,0.9 0.5,1 0.6,0.8 0.6,0.9 0.7,0.9 0.7,0.8 0.7,0.8 0.8,0.8 0.8,0.7 0.9,0.7 0.9,0.7 1,0.6 1,0.6 1,0.5 1.1,0.5 1,0.4 1.2,0.4 1.1,0.4 1.2,0.2 1.1,0.3 1.3,0.2 1.2,0.1 h 1.2 1.2 1.3 l 1.3,-0.1 1.2,-0.2 1.3,-0.2 1.2,-0.3 1.3,-0.4 1.2,-0.4 1.2,-0.5 1.2,-0.5 1.2,-0.6 1.2,-0.7 1.1,-0.7 1.1,-0.8 1.1,-0.8 1.1,-0.9 1,-1 0.9,-1 1,-1 0.8,-1.1 0.9,-1.2 0.8,-1.1 0.7,-1.3 0.7,-1.3 0.6,-1.3 0.5,-1.3 0.5,-1.4 0.5,-1.4 0.3,-1.5 0.3,-1.4 0.3,-1.5 0.1,-1.5 0.1,-1.6 v -1.5 -1.5 l -0.1,-1.6 -0.2,-1.5 -0.3,-1.6 -0.3,-1.5 -0.5,-1.5 -0.5,-1.5 -0.5,-1.5 -0.7,-1.5 -0.7,-1.5 -0.8,-1.4 -0.8,-1.4 -1,-1.4 -1,-1.3 -1,-1.3 -1.1,-1.2 -1.2,-1.2 -1.3,-1.1 -1.3,-1.1 -1.4,-1 -1.4,-1 -1.5,-0.9 -1.5,-0.8 -1.5,-0.8 -1.7,-0.7 -1.6,-0.6 -1.7,-0.6 -1.7,-0.4 -1.7,-0.4 -1.8,-0.3 -1.8,-0.3 -1.8,-0.1 -1.8,-0.1 -1.9,0.1 -1.8,0.1 -1.8,0.2 -1.9,0.3 -1.8,0.3 -1.8,0.5 -1.8,0.5 -1.8,0.7 -1.8,0.7 -1.7,0.8 -1.7,0.9 -1.7,1 -1.6,1 -1.6,1.2 -1.5,1.2 -1.5,1.3 -1.4,1.4 -1.4,1.4 -1.3,1.5 -1.2,1.6 -1.2,1.6 -1.1,1.7 -1,1.8 -0.9,1.8 -0.9,1.8 -0.7,1.9 -0.7,2 -0.6,2 -0.5,2 -0.4,2 -0.3,2.1 -0.3,2.1 -0.1,2.1 v 2.1 l 0.1,2.2 0.2,2.1 0.3,2.1 0.3,2.1 0.5,2.2 0.6,2.1 0.7,2 0.8,2.1 0.8,2 1,2 1.1,1.9 1.2,1.9 1.2,1.9 1.4,1.8 1.4,1.7 1.6,1.7 1.6,1.6 1.6,1.5 1.8,1.5 1.9,1.4 1.9,1.3 1.9,1.2 2.1,1.1 2.1,1 2.1,1 2.2,0.8 2.3,0.7 2.2,0.7 2.4,0.5 2.3,0.4 2.4,0.3 2.4,0.2 2.4,0.1 h 2.4 l 2.5,-0.1 2.4,-0.3 2.4,-0.4 2.4,-0.4 2.4,-0.6 2.4,-0.7 2.3,-0.9 2.3,-0.9 2.3,-1 2.3,-1.2 2.1,-1.3 2.2,-1.3 2,-1.5 2,-1.6 2,-1.6 1.8,-1.8 1.8,-1.8 1.7,-2 1.6,-2 1.6,-2.1 1.4,-2.2 1.3,-2.3 1.3,-2.3 1.1,-2.4 1,-2.4 0.9,-2.5 0.8,-2.5 0.7,-2.6 0.5,-2.7 0.4,-2.6 0.3,-2.7 0.2,-2.7 0.1,-2.7 -0.1,-2.7 -0.2,-2.8 -0.3,-2.7 -0.5,-2.7 -0.6,-2.7 -0.7,-2.7 -0.8,-2.6 -1,-2.6 -1.1,-2.6 -1.2,-2.5 -1.3,-2.5 -1.5,-2.4 -1.5,-2.4 -1.7,-2.3 -1.8,-2.2 -1.9,-2.1 -2,-2.1 -2.1,-1.9 -2.2,-1.9 -2.4,-1.6 -2.5,-1.4 -2.5,-1.4 -2.6,-1.3 -2.7,-1.1 -2.7,-1 -2.7,-0.9 -2.8,-0.8 -2.8,-0.6 -2.8,-0.5 -2.9,-0.4 -2.8,-0.2 -2.9,-0.1 h -2.9 l -2.9,0.2 -2.8,0.3 -2.9,0.4 -2.8,0.6 -2.8,0.7 -2.8,0.8 -2.7,1 -2.6,1.1 -2.7,1.2 -2.5,1.3 -2.5,1.4 -2.4,1.6 -2.4,1.6 -2.3,1.8 -2.1,1.9 -2.1,2 -2,2 -1.9,2.2 -1.8,2.2 -1.7,2.4 -1.6,2.4 -1.5,2.4 -1.4,2.6 -1.2,2.6 -1.1,2.6 -1,2.7 -0.9,2.8 -0.7,2.8 -0.6,2.8 -0.5,2.8 -0.3,2.9 -0.2,2.9 -0.1,2.8 0.1,2.9 0.2,2.9 0.3,2.8 0.4,2.9 0.6,2.8 0.7,2.8 0.9,2.7 1,2.8 1.1,2.6 1.2,2.6 1.3,2.6 1.5,2.4 1.6,2.5 1.6,2.3 1.8,2.3 1.9,2.1 2,2.1 2.1,2 2.2,1.9 2.2,1.8 2.4,1.6 2.4,1.6 2.5,1.4 2.5,1.4 2.6,1.2 2.7,1.1 2.7,1 2.8,0.8 2.8,0.7 2.8,0.6 2.8,0.4 2.9,0.4 2.9,0.1 2.8,0.1 2.9,-0.1 2.9,-0.2 2.8,-0.3 2.9,-0.5 2.8,-0.6 2.8,-0.8 2.7,-0.9 2.7,-1 2.7,-1.1 2.6,-1.2 2.5,-1.4 2.5,-1.5 2.4,-1.6 2.3,-1.7 2.2,-1.8 2.2,-1.9 2.1,-2 1.9,-2.1 1.9,-2.2 1.8,-2.2 1.6,-2.4 1.6,-2.4 1.4,-2.5 1.3,-2.6 1.2,-2.6 1.1,-2.7 0.9,-2.7 0.8,-2.8 0.7,-2.8 0.6,-2.8 0.4,-2.8 0.3,-2.9 0.2,-2.9 v -2.8 l -0.1,-2.9 -0.3,-2.9 -0.3,-2.8 -0.5,-2.9 -0.7,-2.8 -0.7,-2.8 -0.9,-2.7 -1,-2.7 -1.2,-2.6 -1.3,-2.6 -1.3,-2.5 -1.5,-2.5 -1.6,-2.4 -1.8,-2.3 -1.8,-2.2 -1.9,-2.2 -2,-2 -2.2,-2 -2.2,-1.8 -2.3,-1.8"
       fill="none"
       stroke="#d8253a"
       stroke-width="9"
       stroke-linecap="round"
       stroke-linejoin="round"
       id="path4" />
    <g
       fill="#34b44a"
       transform="translate(-6.6953125,-10.46875)"
       id="g7">
      <path
         d="M 105,58 Q 78,38 55,42 74,52 105,60 Z"
         id="path5" />
      <path
         d="M 105,58 Q 135,36 158,44 132,54 106,61 Z"
         id="path6" />
      <path
         d="m 104,60 q -4,-24 2,-32 8,10 2,33 z"
         id="path7" />
    </g>
    <path
       d="m 100,116 v 0.2 0.2 l 0.1,0.2 v 0.2 l 0.1,0.1 0.1,0.2 0.1,0.2 0.2,0.1 0.1,0.2 0.2,0.1 0.1,0.1 0.2,0.1 0.2,0.1 0.2,0.1 0.2,0.1 h 0.3 l 0.2,0.1 h 0.2 0.3 0.3 l 0.2,-0.1 h 0.3 l 0.2,-0.1 0.3,-0.1 0.3,-0.1 0.2,-0.1 0.3,-0.2 0.3,-0.2 0.2,-0.2 0.2,-0.2 0.3,-0.2 0.2,-0.3 0.2,-0.3 0.2,-0.3 0.2,-0.3 0.1,-0.3 0.2,-0.3 0.1,-0.4 0.1,-0.4 0.1,-0.4 0.1,-0.4 V 113 l 0.1,-0.4 v -0.4 -0.5 l -0.1,-0.4 -0.1,-0.5 -0.1,-0.4 -0.1,-0.5 -0.1,-0.4 -0.2,-0.5 -0.2,-0.4 -0.2,-0.5 -0.3,-0.4 -0.3,-0.4 -0.3,-0.5 -0.3,-0.4 -0.4,-0.4 -0.4,-0.4 -0.4,-0.3 -0.5,-0.4 -0.4,-0.3 -0.5,-0.4 -0.5,-0.2 -0.6,-0.3 -0.5,-0.3 -0.6,-0.2 -0.6,-0.2 -0.6,-0.1 -0.7,-0.2 -0.6,-0.1 -0.7,-0.1 h -0.6 -0.7 -0.7 l -0.7,0.1 -0.7,0.1 -0.7,0.1 -0.7,0.2 -0.7,0.2 -0.7,0.2 -0.7,0.3 -0.7,0.3 -0.6,0.4 -0.7,0.4 -0.7,0.4 -0.6,0.5 -0.6,0.5 -0.6,0.5 -0.6,0.6 -0.6,0.6 -0.5,0.6 -0.5,0.7 -0.5,0.7 -0.4,0.7 -0.4,0.8 -0.4,0.8 -0.4,0.8 -0.3,0.8 -0.2,0.9 -0.3,0.9 -0.2,0.9 -0.1,0.9 -0.1,0.9 -0.1,1 v 0.9 1 l 0.1,1 0.1,0.9 0.2,1 0.2,1 0.3,0.9 0.3,1 0.4,1 0.4,0.9 0.5,0.9 0.5,1 0.6,0.8 0.6,0.9 0.7,0.9 0.7,0.8 0.7,0.8 0.8,0.8 0.8,0.7 0.9,0.7 0.9,0.7 1,0.6 1,0.6 1,0.5 1.1,0.5 1,0.4 1.2,0.4 1.1,0.4 1.2,0.2 1.1,0.3 1.3,0.2 1.2,0.1 h 1.2 1.2 1.3 l 1.3,-0.1 1.2,-0.2 1.3,-0.2 1.2,-0.3 1.3,-0.4 1.2,-0.4 1.2,-0.5 1.2,-0.5 1.2,-0.6 1.2,-0.7 1.1,-0.7 1.1,-0.8 1.1,-0.8 1.1,-0.9 1,-1 0.9,-1 1,-1 0.8,-1.1 0.9,-1.2 0.8,-1.1 0.7,-1.3 0.7,-1.3 0.6,-1.3 0.5,-1.3 0.5,-1.4 0.5,-1.4 0.3,-1.5 0.3,-1.4 0.3,-1.5 0.1,-1.5 0.1,-1.6 v -1.5 -1.5 l -0.1,-1.6 -0.2,-1.5 -0.3,-1.6 -0.3,-1.5 -0.5,-1.5 -0.5,-1.5 -0.5,-1.5 -0.7,-1.5 -0.7,-1.5 -0.8,-1.4 -0.8,-1.4 -1,-1.4 -1,-1.3 -1,-1.3 -1.1,-1.2 -1.2,-1.2 -1.3,-1.1 -1.3,-1.1 -1.4,-1 -1.4,-1 -1.5,-0.9 -1.5,-0.8 -1.5,-0.8 -1.7,-0.7 -1.6,-0.6 -1.7,-0.6 -1.7,-0.4 -1.7,-0.4 -1.8,-0.3 -1.8,-0.3 -1.8,-0.1 -1.8,-0.1 -1.9,0.1 -1.8,0.1 -1.8,0.2 -1.9,0.3 -1.8,0.3 -1.8,0.5 -1.8,0.5 -1.8,0.7 -1.8,0.7 -1.7,0.8 -1.7,0.9 -1.7,1 -1.6,1 -1.6,1.2 -1.5,1.2 -1.5,1.3 -1.4,1.4 -1.4,1.4 -1.3,1.5 -1.2,1.6 -1.2,1.6 -1.1,1.7 -1,1.8 -0.9,1.8 -0.9,1.8 -0.7,1.9 -0.7,2 -0.6,2 -0.5,2 -0.4,2 -0.3,2.1 -0.3,2.1 -0.1,2.1 v 2.1 l 0.1,2.2 0.2,2.1 0.3,2.1 0.3,2.1 0.5,2.2 0.6,2.1 0.7,2 0.8,2.1 0.8,2 1,2 1.1,1.9 1.2,1.9 1.2,1.9 1.4,1.8 1.4,1.7 1.6,1.7 1.6,1.6 1.6,1.5 1.8,1.5 1.9,1.4 1.9,1.3 1.9,1.2 2.1,1.1 2.1,1 2.1,1 2.2,0.8 2.3,0.7 2.2,0.7 2.4,0.5 2.3,0.4 2.4,0.3 2.4,0.2 2.4,0.1 h 2.4 l 2.5,-0.1 2.4,-0.3 2.4,-0.4 2.4,-0.4 2.4,-0.6 2.4,-0.7 2.3,-0.9 2.3,-0.9 2.3,-1 2.3,-1.2 2.1,-1.3 2.2,-1.3 2,-1.5 2,-1.6 2,-1.6 1.8,-1.8 1.8,-1.8 1.7,-2 1.6,-2 1.6,-2.1 1.4,-2.2 1.3,-2.3 1.3,-2.3 1.1,-2.4 1,-2.4 0.9,-2.5 0.8,-2.5 0.7,-2.6 0.5,-2.7 0.4,-2.6 0.3,-2.7 0.2,-2.7 0.1,-2.7 -0.1,-2.7 -0.2,-2.8 -0.3,-2.7 -0.5,-2.7 -0.6,-2.7 -0.7,-2.7 -0.8,-2.6 -1,-2.6 -1.1,-2.6 -1.2,-2.5 -1.3,-2.5 -1.5,-2.4 -1.5,-2.4 -1.7,-2.3 -1.8,-2.2 -1.9,-2.1 -2,-2.1 -2.1,-1.9 -2.2,-1.9 -2.4,-1.6 -2.5,-1.4 -2.5,-1.4 -2.6,-1.3 -2.7,-1.1 -2.7,-1 -2.7,-0.9 -2.8,-0.8 -2.8,-0.6 -2.8,-0.5 -2.9,-0.4 -2.8,-0.2 -2.9,-0.1 h -2.9 l -2.9,0.2 -2.8,0.3 -2.9,0.4 -2.8,0.6 -2.8,0.7 -2.8,0.8 -2.7,1 -2.6,1.1 -2.7,1.2 -2.5,1.3 -2.5,1.4 -2.4,1.6 -2.4,1.6 -2.3,1.8 -2.1,1.9 -2.1,2 -2,2 -1.9,2.2 -1.8,2.2 -1.7,2.4 -1.6,2.4 -1.5,2.4 -1.4,2.6 -1.2,2.6 -1.1,2.6 -1,2.7 -0.9,2.8 -0.7,2.8 -0.6,2.8 -0.5,2.8 -0.3,2.9 -0.2,2.9 -0.1,2.8 0.1,2.9 0.2,2.9 0.3,2.8 0.4,2.9 0.6,2.8 0.7,2.8 0.9,2.7 1,2.8 1.1,2.6 1.2,2.6 1.3,2.6 1.5,2.4 1.6,2.5 1.6,2.3 1.8,2.3 1.9,2.1 2,2.1 2.1,2 2.2,1.9 2.2,1.8 2.4,1.6 2.4,1.6 2.5,1.4 2.5,1.4 2.6,1.2 2.7,1.1 2.7,1 2.8,0.8 2.8,0.7 2.8,0.6 2.8,0.4 2.9,0.4 2.9,0.1 2.8,0.1 2.9,-0.1 2.9,-0.2 2.8,-0.3 2.9,-0.5 2.8,-0.6 2.8,-0.8 2.7,-0.9 2.7,-1 2.7,-1.1 2.6,-1.2 2.5,-1.4 2.5,-1.5 2.4,-1.6 2.3,-1.7 2.2,-1.8 2.2,-1.9 2.1,-2 1.9,-2.1 1.9,-2.2 1.8,-2.2 1.6,-2.4 1.6,-2.4 1.4,-2.5 1.3,-2.6 1.2,-2.6 1.1,-2.7 0.9,-2.7 0.8,-2.8 0.7,-2.8 0.6,-2.8 0.4,-2.8 0.3,-2.9 0.2,-2.9 v -2.8 l -0.1,-2.9 -0.3,-2.9 -0.3,-2.8 -0.5,-2.9 -0.7,-2.8 -0.7,-2.8 -0.9,-2.7 -1,-2.7 -1.2,-2.6 -1.3,-2.6 -1.3,-2.5 -1.5,-2.5 -1.6,-2.4 -1.8,-2.3 -1.8,-2.2 -1.9,-2.2 -2,-2 -2.2,-2 -2.2,-1.8 -2.3,-1.8"
       fill="none"
       stroke="#d8253a"
       stroke-width="9"
       stroke-linecap="round"
       stroke-linejoin="round"
       id="path10" />
  </g>
</svg>
