<svg xmlns="http://www.w3.org/2000/svg" viewBox="0 0 200 200" width="1024" height="1024">
 <g transform="translate(0,4)">
  <g fill="#34B44A" transform="translate(-6.5,-5)">
   <path d="M105,58 Q78,38 55,42 Q74,52 105,60 Z"/>
   <path d="M105,58 Q135,36 158,44 Q132,54 106,61 Z"/>
   <path d="M104,60 Q100,36 106,28 Q114,38 108,61 Z"/>
  </g>
  <path d="M 100.0,116.0 L 100.0,115.8 L 100.0,115.6 L 99.9,115.4 L 99.9,115.2 L 99.8,115.1 L 99.7,114.9 L 99.6,114.7 L 99.4,114.6 L 99.3,114.4 L 99.1,114.3 L 99.0,114.2 L 98.8,114.1 L 98.6,114.0 L 98.4,113.9 L 98.2,113.8 L 97.9,113.8 L 97.7,113.7 L 97.5,113.7 L 97.2,113.7 L 96.9,113.7 L 96.7,113.8 L 96.4,113.8 L 96.2,113.9 L 95.9,114.0 L 95.6,114.1 L 95.4,114.2 L 95.1,114.4 L 94.8,114.6 L 94.6,114.8 L 94.4,115.0 L 94.1,115.2 L 93.9,115.5 L 93.7,115.8 L 93.5,116.1 L 93.3,116.4 L 93.2,116.7 L 93.0,117.0 L 92.9,117.4 L 92.8,117.8 L 92.7,118.2 L 92.6,118.6 L 92.6,119.0 L 92.5,119.4 L 92.5,119.8 L 92.5,120.3 L 92.6,120.7 L 92.7,121.2 L 92.8,121.6 L 92.9,122.1 L 93.0,122.5 L 93.2,123.0 L 93.4,123.4 L 93.6,123.9 L 93.9,124.3 L 94.2,124.7 L 94.5,125.2 L 94.8,125.6 L 95.2,126.0 L 95.6,126.4 L 96.0,126.7 L 96.5,127.1 L 96.9,127.4 L 97.4,127.8 L 97.9,128.0 L 98.5,128.3 L 99.0,128.6 L 99.6,128.8 L 100.2,129.0 L 100.8,129.1 L 101.5,129.3 L 102.1,129.4 L 102.8,129.5 L 103.4,129.5 L 104.1,129.5 L 104.8,129.5 L 105.5,129.4 L 106.2,129.3 L 106.9,129.2 L 107.6,129.0 L 108.3,128.8 L 109.0,128.6 L 109.7,128.3 L 110.4,128.0 L 111.0,127.6 L 111.7,127.2 L 112.4,126.8 L 113.0,126.3 L 113.6,125.8 L 114.2,125.3 L 114.8,124.7 L 115.4,124.1 L 115.9,123.5 L 116.4,122.8 L 116.9,122.1 L 117.3,121.4 L 117.7,120.6 L 118.1,119.8 L 118.5,119.0 L 118.8,118.2 L 119.0,117.3 L 119.3,116.4 L 119.5,115.5 L 119.6,114.6 L 119.7,113.7 L 119.8,112.7 L 119.8,111.8 L 119.8,110.8 L 119.7,109.8 L 119.6,108.9 L 119.4,107.9 L 119.2,106.9 L 118.9,106.0 L 118.6,105.0 L 118.2,104.0 L 117.8,103.1 L 117.3,102.2 L 116.8,101.2 L 116.2,100.4 L 115.6,99.5 L 114.9,98.6 L 114.2,97.8 L 113.5,97.0 L 112.7,96.2 L 111.9,95.5 L 111.0,94.8 L 110.1,94.1 L 109.1,93.5 L 108.1,92.9 L 107.1,92.4 L 106.0,91.9 L 105.0,91.5 L 103.8,91.1 L 102.7,90.7 L 101.5,90.5 L 100.4,90.2 L 99.1,90.0 L 97.9,89.9 L 96.7,89.9 L 95.5,89.9 L 94.2,89.9 L 92.9,90.0 L 91.7,90.2 L 90.4,90.4 L 89.2,90.7 L 87.9,91.1 L 86.7,91.5 L 85.5,92.0 L 84.3,92.5 L 83.1,93.1 L 81.9,93.8 L 80.8,94.5 L 79.7,95.3 L 78.6,96.1 L 77.5,97.0 L 76.5,98.0 L 75.6,99.0 L 74.6,100.0 L 73.8,101.1 L 72.9,102.3 L 72.1,103.4 L 71.4,104.7 L 70.7,106.0 L 70.1,107.3 L 69.6,108.6 L 69.1,110.0 L 68.6,111.4 L 68.3,112.9 L 68.0,114.3 L 67.7,115.8 L 67.6,117.3 L 67.5,118.9 L 67.5,120.4 L 67.5,121.9 L 67.6,123.5 L 67.8,125.0 L 68.1,126.6 L 68.4,128.1 L 68.9,129.6 L 69.4,131.1 L 69.9,132.6 L 70.6,134.1 L 71.3,135.6 L 72.1,137.0 L 72.9,138.4 L 73.9,139.8 L 74.9,141.1 L 75.9,142.4 L 77.0,143.6 L 78.2,144.8 L 79.5,145.9 L 80.8,147.0 L 82.2,148.0 L 83.6,149.0 L 85.1,149.9 L 86.6,150.7 L 88.1,151.5 L 89.8,152.2 L 91.4,152.8 L 93.1,153.4 L 94.8,153.8 L 96.5,154.2 L 98.3,154.5 L 100.1,154.8 L 101.9,154.9 L 103.7,155.0 L 105.6,154.9 L 107.4,154.8 L 109.2,154.6 L 111.1,154.3 L 112.9,154.0 L 114.7,153.5 L 116.5,153.0 L 118.3,152.3 L 120.1,151.6 L 121.8,150.8 L 123.5,149.9 L 125.2,148.9 L 126.8,147.9 L 128.4,146.7 L 129.9,145.5 L 131.4,144.2 L 132.8,142.8 L 134.2,141.4 L 135.5,139.9 L 136.7,138.3 L 137.9,136.7 L 139.0,135.0 L 140.0,133.2 L 140.9,131.4 L 141.8,129.6 L 142.5,127.7 L 143.2,125.7 L 143.8,123.7 L 144.3,121.7 L 144.7,119.7 L 145.0,117.6 L 145.3,115.5 L 145.4,113.4 L 145.4,111.3 L 145.3,109.1 L 145.1,107.0 L 144.8,104.9 L 144.5,102.8 L 144.0,100.6 L 143.4,98.5 L 142.7,96.5 L 141.9,94.4 L 141.1,92.4 L 140.1,90.4 L 139.0,88.5 L 137.8,86.6 L 136.6,84.7 L 135.2,82.9 L 133.8,81.2 L 132.2,79.5 L 130.6,77.9 L 129.0,76.4 L 127.2,74.9 L 125.3,73.5 L 123.4,72.2 L 121.5,71.0 L 119.4,69.9 L 117.3,68.9 L 115.2,67.9 L 113.0,67.1 L 110.7,66.4 L 108.5,65.7 L 106.1,65.2 L 103.8,64.8 L 101.4,64.5 L 99.0,64.3 L 96.6,64.2 L 94.2,64.2 L 91.7,64.3 L 89.3,64.6 L 86.9,65.0 L 84.5,65.4 L 82.1,66.0 L 79.7,66.7 L 77.4,67.6 L 75.1,68.5 L 72.8,69.5 L 70.5,70.7 L 68.4,72.0 L 66.2,73.3 L 64.2,74.8 L 62.2,76.4 L 60.2,78.0 L 58.4,79.8 L 56.6,81.6 L 54.9,83.6 L 53.3,85.6 L 51.7,87.7 L 50.3,89.9 L 49.0,92.2 L 47.7,94.5 L 46.6,96.9 L 45.6,99.3 L 44.7,101.8 L 43.9,104.3 L 43.2,106.9 L 42.7,109.6 L 42.3,112.2 L 42.0,114.9 L 41.8,117.6 L 41.7,120.3 L 41.8,123.0 L 42.0,125.8 L 42.3,128.5 L 42.8,131.2 L 43.4,133.9 L 44.1,136.6 L 44.9,139.2 L 45.9,141.8 L 47.0,144.4 L 48.2,146.9 L 49.5,149.4 L 51.0,151.8 L 52.5,154.2 L 54.2,156.5 L 56.0,158.7 L 57.9,160.8 L 59.9,162.9 L 62.0,164.8 L 64.2,166.7 L 66.6,168.3 L 69.1,169.7 L 71.6,171.1 L 74.2,172.4 L 76.9,173.5 L 79.6,174.5 L 82.3,175.4 L 85.1,176.2 L 87.9,176.8 L 90.7,177.3 L 93.6,177.7 L 96.4,177.9 L 99.3,178.0 L 102.2,178.0 L 105.1,177.8 L 107.9,177.5 L 110.8,177.1 L 113.6,176.5 L 116.4,175.8 L 119.2,175.0 L 121.9,174.0 L 124.5,172.9 L 127.2,171.7 L 129.7,170.4 L 132.2,169.0 L 134.6,167.4 L 137.0,165.8 L 139.3,164.0 L 141.4,162.1 L 143.5,160.1 L 145.5,158.1 L 147.4,155.9 L 149.2,153.7 L 150.9,151.3 L 152.5,148.9 L 154.0,146.5 L 155.4,143.9 L 156.6,141.3 L 157.7,138.7 L 158.7,136.0 L 159.6,133.2 L 160.3,130.4 L 160.9,127.6 L 161.4,124.8 L 161.7,121.9 L 161.9,119.0 L 162.0,116.2 L 161.9,113.3 L 161.7,110.4 L 161.4,107.6 L 161.0,104.7 L 160.4,101.9 L 159.7,99.1 L 158.8,96.4 L 157.8,93.6 L 156.7,91.0 L 155.5,88.4 L 154.2,85.8 L 152.7,83.4 L 151.1,80.9 L 149.5,78.6 L 147.7,76.3 L 145.8,74.2 L 143.8,72.1 L 141.7,70.1 L 139.5,68.2 L 137.3,66.4 L 134.9,64.8 L 132.5,63.2 L 130.0,61.8 L 127.5,60.4 L 124.9,59.2 L 122.2,58.1 L 119.5,57.1 L 116.7,56.3 L 113.9,55.6 L 111.1,55.0 L 108.3,54.6 L 105.4,54.2 L 102.5,54.1 L 99.7,54.0 L 96.8,54.1 L 93.9,54.3 L 91.1,54.6 L 88.2,55.1 L 85.4,55.7 L 82.6,56.5 L 79.9,57.4 L 77.2,58.4 L 74.5,59.5 L 71.9,60.7 L 69.4,62.1 L 66.9,63.6 L 64.5,65.2 L 62.2,66.9 L 60.0,68.7 L 57.8,70.6 L 55.7,72.6 L 53.8,74.7 L 51.9,76.9 L 50.1,79.1 L 48.5,81.5 L 46.9,83.9 L 45.5,86.4 L 44.2,89.0 L 43.0,91.6 L 41.9,94.3 L 41.0,97.0 L 40.2,99.8 L 39.5,102.6 L 38.9,105.4 L 38.5,108.2 L 38.2,111.1 L 38.0,114.0 L 38.0,116.8 L 38.1,119.7 L 38.4,122.6 L 38.7,125.4 L 39.2,128.3 L 39.9,131.1 L 40.6,133.9 L 41.5,136.6 L 42.5,139.3 L 43.7,141.9 L 45.0,144.5 L 46.3,147.0 L 47.8,149.5 L 49.4,151.9 L 51.2,154.2 L 53.0,156.4 L 54.9,158.6 L 56.9,160.6 L 59.1,162.6 L 61.3,164.4 L 63.6,166.2" fill="none" stroke="#D8253A" stroke-width="9" stroke-linecap="round" stroke-linejoin="round"/>
 </g>
</svg>
